<svg xmlns="http://www.w3.org/2000/svg" xmlns:xlink="http://www.w3.org/1999/xlink" viewBox="0 0 88 88"><defs><style>.cls-1{fill:none;}.cls-2{clip-path:url(#clip-path);}.cls-3{fill:#818181;}</style><clipPath id="clip-path" transform="translate(0 0)"><rect class="cls-1" width="88" height="88"/></clipPath></defs><g id="Layer_2" data-name="Layer 2"><g id="Layer_1-2" data-name="Layer 1"><g class="cls-2"><path class="cls-3" d="M44,0A44,44,0,1,0,88,44,44,44,0,0,0,44,0m0,4.8A39.2,39.2,0,1,1,4.8,44,39.25,39.25,0,0,1,44,4.8" transform="translate(0 0)"/></g><path class="cls-3" d="M31.67,45.24l-2.81-6.3L26,45.24ZM34.25,51H23.46L21.8,54.74H12L23.77,31H34.08l11.8,23.74h-10Z" transform="translate(0 0)"/><polygon class="cls-3" points="74.27 48.16 74.27 54.74 47.48 54.74 47.48 31 73.9 31 73.9 37.58 56.77 37.58 56.77 39.78 70.54 39.78 70.54 45.69 56.77 45.69 56.77 48.16 74.27 48.16"/></g></g></svg>