<svg xmlns="http://www.w3.org/2000/svg" xmlns:xlink="http://www.w3.org/1999/xlink" viewBox="0 0 88 88"><defs><style>.cls-1{fill:none;}.cls-2{clip-path:url(#clip-path);}.cls-3{fill:#d13239;}</style><clipPath id="clip-path" transform="translate(0 0)"><rect class="cls-1" width="88" height="88"/></clipPath></defs><g id="Layer_2" data-name="Layer 2"><g id="Layer_1-2" data-name="Layer 1"><g class="cls-2"><path class="cls-3" d="M44,0A44,44,0,1,0,88,44,44,44,0,0,0,44,0m0,4.8A39.2,39.2,0,1,1,4.8,44,39.25,39.25,0,0,1,44,4.8" transform="translate(0 0)"/></g><polygon class="cls-3" points="44.03 19.65 18.72 38.67 24.6 46.49 25.22 46.02 25.22 64.77 40.87 64.77 40.87 50.07 47.19 50.07 47.19 64.77 62.83 64.77 62.83 46.13 63.38 46.55 69.28 38.75 44.03 19.65"/></g></g></svg>