<svg xmlns="http://www.w3.org/2000/svg" viewBox="0 0 80.04 80.03"><defs><style>.cls-1{fill:#ada7a3;}.cls-2{fill:#fff;}</style></defs><title>Asset 4</title><g id="Layer_2" data-name="Layer 2"><g id="Layer_1-2" data-name="Layer 1"><g id="_Group_" data-name="&lt;Group&gt;"><g id="_Group_2" data-name="&lt;Group&gt;"><path id="_Path_" data-name="&lt;Path&gt;" class="cls-1" d="M40,80A40,40,0,1,0,0,40,40,40,0,0,0,40,80"/></g><g id="_Group_3" data-name="&lt;Group&gt;"><path id="_Compound_Path_" data-name="&lt;Compound Path&gt;" class="cls-2" d="M19.28,58.81v-36h11.3a39.72,39.72,0,0,1,8.37.54,9.14,9.14,0,0,1,5,3.52,11.41,11.41,0,0,1,2,7,12,12,0,0,1-1.17,5.57,9.78,9.78,0,0,1-3,3.54,10.06,10.06,0,0,1-3.65,1.71,39.05,39.05,0,0,1-7.3.51H26.32V58.81Zm7-29.88V39.14h3.85a17.7,17.7,0,0,0,5.57-.56,4.65,4.65,0,0,0,2.2-1.77,4.94,4.94,0,0,0,.8-2.8,4.73,4.73,0,0,0-1.12-3.24,4.83,4.83,0,0,0-2.83-1.59,32.76,32.76,0,0,0-5.07-.25Z"/><path id="_Compound_Path_2" data-name="&lt;Compound Path&gt;" class="cls-2" d="M51.56,58.81v-36h7v36Z"/></g></g></g></g></svg>