<svg xmlns="http://www.w3.org/2000/svg" viewBox="0 0 90 90"><defs><style>.cls-1{fill:#aea7a2;}.cls-2{fill:#fff;}</style></defs><title>icon_guide</title><g id="Layer_2" data-name="Layer 2"><g id="Layer_1-2" data-name="Layer 1"><path class="cls-1" d="M45,90A45,45,0,1,0,0,45,45,45,0,0,0,45,90"/><path class="cls-2" d="M51,27.33a5.11,5.11,0,0,1-5.15,5.33,4.3,4.3,0,0,1-4.37-4.3c0-3.28,2.25-5.58,5.16-5.58A4.38,4.38,0,0,1,51,27.33m-1,11.7c0,1.27-2.3,18.37-2.67,21.52A13.08,13.08,0,0,0,52,59.28l1.63,3.64a15.83,15.83,0,0,1-9.7,4.3c-3.82,0-5-1.88-5-4.61,0-.48.06-1,.12-1.63l2.42-18.8-5-.85.23-3.94a36.14,36.14,0,0,1,9.16-1.51C49,35.88,49.94,37,49.94,39"/></g></g></svg>