<?xml version="1.0" encoding="utf-8"?>
<!-- Generator: Adobe Illustrator 22.1.0, SVG Export Plug-In . SVG Version: 6.00 Build 0)  -->
<svg version="1.1" id="Layer_1" xmlns="http://www.w3.org/2000/svg" xmlns:xlink="http://www.w3.org/1999/xlink" x="0px" y="0px"
	 viewBox="0 0 86 86" style="enable-background:new 0 0 86 86;" xml:space="preserve">
<style type="text/css">
	.st0{fill:#AEA7A2;}
	.st1{fill:#FFFFFF;}
</style>
<title>icon_objection</title>
<g id="Layer_2_1_">
	<g id="Layer_1-2">
		<path class="st0" d="M43,86c23.7,0,43-19.3,43-43S66.7,0,43,0S0,19.3,0,43S19.3,86,43,86"/>
		<path class="st1" d="M39.6,53L39.6,53c0,1.8,0,3.7,0,5.5c-0.1,1.4,1,2.6,2.3,2.7c1.2,0.1,2.4-0.7,2.7-1.9c0.1-0.6,0.2-1.2,0.2-1.7
			c0-2.3,0-4.7,0-7c-0.1-0.4,0.2-0.8,0.6-0.9c0,0,0,0,0,0c0.8-0.2,1.5-0.4,2.2-0.7c5.1-1.8,9.5-5.1,9.8-12.5
			c0.5-5.4-2.7-10.5-7.7-12.6c-2.9-1.2-6.1-1.7-9.3-1.2c-3.1,0.3-6,1.5-8.4,3.4c-2.4,1.8-3.7,4.7-3.6,7.8c-0.1,1.1,0.7,2.1,1.7,2.4
			c1.7,0.5,2.9-0.3,3.3-2.3c0.2-1.5,1-2.9,2.1-4c2.3-2.1,5.5-3,8.5-2.4c6,1,8.8,6.1,7.1,11.2c-1,3.1-3.4,4.8-6.4,5.8
			c-1.2,0.4-2.5,0.7-3.8,1c-1,0.2-1.8,1.2-1.6,2.2C39.6,49.5,39.6,51.3,39.6,53z M45.2,68.4c0-1.7-1.3-3-2.9-3.1c0,0-0.1,0-0.1,0
			c-1.7,0-3,1.3-3,3c-0.1,1.6,1.2,2.9,2.8,3c0,0,0.1,0,0.1,0c1.6,0.1,3-1.1,3.1-2.8C45.2,68.6,45.2,68.5,45.2,68.4z"/>
		<path class="st1" d="M39.6,53c0-1.7,0-3.5,0-5.2c-0.1-1.1,0.6-2,1.6-2.2c1.3-0.4,2.5-0.6,3.8-1c2.9-1,5.3-2.7,6.4-5.8
			c1.7-5.1-1.1-10.2-7.1-11.2C41.2,27,38,27.9,35.7,30c-1.1,1.1-1.9,2.5-2.1,4c-0.4,2-1.6,2.8-3.3,2.3c-1.1-0.3-1.8-1.3-1.7-2.4
			c-0.1-3,1.2-5.9,3.6-7.8c2.4-2,5.3-3.1,8.4-3.4c3.1-0.4,6.3,0,9.3,1.2c5,2.1,8.1,7.1,7.7,12.5c-0.3,7.3-4.7,10.7-9.8,12.5
			c-0.7,0.3-1.5,0.5-2.2,0.7c-0.4,0-0.7,0.4-0.7,0.8c0,0,0,0,0,0c0,2.3,0,4.7,0,7c0,0.6-0.1,1.2-0.2,1.7c-0.3,1.2-1.4,2-2.7,1.9
			c-1.4-0.1-2.4-1.3-2.3-2.7C39.5,56.7,39.6,54.8,39.6,53L39.6,53z"/>
		<path class="st1" d="M45.2,68.4c0,1.6-1.3,2.9-2.9,2.9c-0.1,0-0.1,0-0.2,0c-1.6,0-2.9-1.3-2.9-2.9c0,0,0-0.1,0-0.1
			c0-1.7,1.3-3,3-3C43.8,65.4,45.2,66.7,45.2,68.4C45.2,68.4,45.2,68.4,45.2,68.4z"/>
	</g>
</g>
</svg>
