<?xml version="1.0" encoding="utf-8"?>
<!-- Generator: Adobe Illustrator 22.1.0, SVG Export Plug-In . SVG Version: 6.00 Build 0)  -->
<svg version="1.1" id="Layer_1" xmlns="http://www.w3.org/2000/svg" xmlns:xlink="http://www.w3.org/1999/xlink" x="0px" y="0px"
	 viewBox="0 0 80 80" style="enable-background:new 0 0 80 80;" xml:space="preserve">
<style type="text/css">
	.st0{fill:#EAE9E8;stroke:#AEA7A2;stroke-miterlimit:10;}
	.st1{fill:#ED6F27;}
</style>
<title>Asset 6</title>
<g id="Layer_2_1_">
	<g id="Layer_1-2">
		<path id="_Path_" class="st0" d="M40,79c21.5,0,39-17.5,39-39S61.5,1,40,1S1,18.5,1,40S18.5,79,40,79"/>
		<path id="_Compound_Path_" class="st1" d="M60.2,33.4v17.5c0,1.4-1.1,2.5-2.5,2.5c0,0,0,0,0,0H22.3c-1.4,0-2.5-1.1-2.5-2.5V28.8
			l7.7,5.1L40,42.3l1.4-0.9l3.3-2.2l11.7-7.8l3.8-2.6L60.2,33.4z M32.9,26.7h22.4l-6.6,4.5l-1.9,1.3l-5.3,3.6
			c-0.8,0.6-1.9,0.6-2.8,0l-5.2-3.5l-2-1.4l-6.7-4.5H32.9z M62.1,22.4H18c-1.4,0-2.5,1.1-2.5,2.5v30.3c0,1.4,1.1,2.5,2.5,2.5
			c0,0,0,0,0,0h44.1c1.4,0,2.5-1.1,2.5-2.5V24.9C64.5,23.5,63.4,22.4,62.1,22.4L62.1,22.4"/>
	</g>
</g>
</svg>
