<svg xmlns="http://www.w3.org/2000/svg" viewBox="0 0 84.47 84.47"><defs><style>.cls-1{fill:#ada7a2;}.cls-2{fill:#fff;}</style></defs><title>quickres</title><g id="Layer_2" data-name="Layer 2"><g id="Layer_1-2" data-name="Layer 1"><path class="cls-1" d="M42.24,84.47A42.24,42.24,0,1,0,0,42.24,42.24,42.24,0,0,0,42.24,84.47"/><path class="cls-2" d="M39.61,26.39H22.69S17,26.39,17,32.06v29.2s0,5.67,5.67,5.67H52.46s5.67,0,5.67-5.67V45.13L51,52v2.44c0,5.67-5.67,5.67-5.67,5.67H30.06c-5.67,0-5.67-5.67-5.67-5.67V39.15c0-5.67,5.67-5.67,5.67-5.67H33Z"/><path class="cls-2" d="M38.38,17.61l7.92,7.92-11,11s-4,4,0,8L40,49.3s4,4,8,0l11-11,8.36,8.36.07-29.07Z"/></g></g></svg>