<?xml version="1.0" encoding="utf-8"?>
<!-- Generator: Adobe Illustrator 22.1.0, SVG Export Plug-In . SVG Version: 6.00 Build 0)  -->
<svg version="1.1" id="Layer_1" xmlns="http://www.w3.org/2000/svg" xmlns:xlink="http://www.w3.org/1999/xlink" x="0px" y="0px"
	 viewBox="0 0 86 86" style="enable-background:new 0 0 86 86;" xml:space="preserve">
<style type="text/css">
	.st0{fill:#AEA7A2;}
	.st1{fill:#FFFFFF;}
</style>
<title>icon_zoom</title>
<g id="Layer_2_1_">
	<g id="Layer_1-2">
		<path class="st0" d="M43,86c23.7,0,43-19.3,43-43S66.7,0,43,0S0,19.3,0,43S19.3,86,43,86"/>
		<path class="st1" d="M34.4,45.7L20.8,59.3l0,0c-1.8,1.8-1.8,4.6,0,6.3s4.6,1.8,6.3,0L40.8,52C38.2,50.3,36.1,48.2,34.4,45.7z"/>
		<path class="st1" d="M46.6,21c-9.9,0-17.9,8-17.9,17.9c0,9.9,8,17.9,17.9,17.9c9.9,0,17.9-8,17.9-17.9C64.6,29.1,56.6,21,46.6,21
			C46.6,21,46.6,21,46.6,21z M46.6,51.3c-6.8,0-12.3-5.5-12.3-12.3c0-6.8,5.5-12.3,12.3-12.3S58.9,32.2,58.9,39c0,0,0,0,0,0
			C58.9,45.8,53.4,51.3,46.6,51.3L46.6,51.3z"/>
		<path class="st1" d="M53.3,36.8h-5.2v-5.2c0-0.7-0.6-1.3-1.3-1.3c-0.7,0-1.3,0.6-1.3,1.3c0,0,0,0,0,0v5.2h-5.2
			c-0.7,0-1.3,0.6-1.3,1.3c0,0.7,0.6,1.3,1.3,1.3h5.2v5.2c0,0.7,0.6,1.3,1.3,1.3c0.7,0,1.3-0.6,1.3-1.3c0,0,0,0,0,0v-5.2h5.2
			c0.7,0,1.3-0.6,1.3-1.3C54.6,37.4,54.1,36.8,53.3,36.8z"/>
	</g>
</g>
</svg>
