<svg xmlns="http://www.w3.org/2000/svg" viewBox="0 0 80.04 80.03"><defs><style>.cls-1{fill:#ada7a3;}.cls-2{fill:#fff;}</style></defs><title>Asset 3</title><g id="Layer_2" data-name="Layer 2"><g id="Layer_1-2" data-name="Layer 1"><path id="_Path_" data-name="&lt;Path&gt;" class="cls-1" d="M40,80A40,40,0,1,0,0,40,40,40,0,0,0,40,80"/><g id="_Group_" data-name="&lt;Group&gt;"><path class="cls-2" d="M59.84,28.09H19.11a3.44,3.44,0,1,1,0-6.88H59.84a3.44,3.44,0,0,1,0,6.88Z"/></g><g id="_Group_2" data-name="&lt;Group&gt;"><path class="cls-2" d="M59.84,43.46H19.11a3.44,3.44,0,0,1,0-6.88H59.84a3.44,3.44,0,0,1,0,6.88Z"/></g><g id="_Group_3" data-name="&lt;Group&gt;"><path class="cls-2" d="M59.84,58.82H19.11a3.44,3.44,0,1,1,0-6.88H59.84a3.44,3.44,0,0,1,0,6.88Z"/></g></g></g></svg>