<?xml version="1.0" encoding="utf-8"?>
<!-- Generator: Adobe Illustrator 22.1.0, SVG Export Plug-In . SVG Version: 6.00 Build 0)  -->
<svg version="1.1" id="Layer_1" xmlns="http://www.w3.org/2000/svg" xmlns:xlink="http://www.w3.org/1999/xlink" x="0px" y="0px"
	 viewBox="0 0 86 86" style="enable-background:new 0 0 86 86;" xml:space="preserve">
<style type="text/css">
	.st0{fill:#AEA7A2;}
	.st1{fill:#FFFFFF;}
</style>
<title>icon_zoom_out</title>
<g id="Layer_2_1_">
	<g id="Layer_1-2">
		<path class="st0" d="M43,86C19.3,86,0,66.7,0,43S19.3,0,43,0s43,19.3,43,43S66.7,86,43,86"/>
		<path class="st1" d="M53.1,45.7l13.6,13.6l0,0c1.8,1.8,1.8,4.6,0,6.3c-1.8,1.8-4.6,1.8-6.3,0L46.8,52
			C49.3,50.3,51.4,48.2,53.1,45.7z"/>
		<path class="st1" d="M20,39c0,9.9,8.1,17.9,18,17.9s17.9-8.1,17.9-18c0-9.9-8.1-17.9-18-17.9C28,21,20,29.1,20,39
			C20,39,20,39,20,39z M25.6,39c0-6.8,5.5-12.3,12.3-12.3S50.3,32.2,50.3,39c0,6.8-5.5,12.3-12.3,12.3c0,0,0,0,0,0
			C31.1,51.3,25.6,45.8,25.6,39L25.6,39z"/>
		<path class="st1" d="M31.4,37.3h13c0.7,0,1.3,0.6,1.3,1.3c0,0.7-0.6,1.3-1.3,1.3h-13c-0.7,0-1.3-0.6-1.3-1.3
			C30.1,37.9,30.7,37.4,31.4,37.3z"/>
	</g>
</g>
</svg>
