<svg xmlns="http://www.w3.org/2000/svg" viewBox="0 0 86 86"><defs><style>.cls-1{fill:#ada7a2;}.cls-2{fill:#949494;}.cls-3,.cls-4{fill:#fff;}.cls-4{font-size:7px;font-family:Arial-BoldMT, Arial;font-weight:700;letter-spacing:0.01em;}</style></defs><title>icon_portfolio</title><g id="Layer_2" data-name="Layer 2"><g id="Layer_1-2" data-name="Layer 1"><path class="cls-1" d="M43,86A43,43,0,1,0,0,43,43,43,0,0,0,43,86"/><polygon class="cls-2" points="19.99 25.09 19.99 58.99 22.33 53.22 22.33 36.31 26.86 31.5 60.81 31.37 60.81 28.62 38.55 28.34 35.52 24.22 19.99 25.09"/><polygon class="cls-2" points="57.76 62.39 19.99 61.46 28.75 37.13 65.76 37.8 57.76 62.39"/><path class="cls-3" d="M65,36.2H63V30.6H61.4V27.4H39.07l-2.86-4h-15A2.19,2.19,0,0,0,19,25.59V60.54h0a2,2,0,0,0,2,2.06H56.86a2,2,0,0,0,2-1.45L67,38.72v-.14a2.14,2.14,0,0,0-2-2.37Zm-3.59,0H55v-.8a.8.8,0,0,0-1.6,0v.8h-4v-.8a.8.8,0,1,0-1.6,0v.8h-4v-.8a.8.8,0,0,0-1.6,0v.8h-4v-.8a.8.8,0,1,0-1.6,0v.8h-4v-.8a.8.8,0,0,0-1.6,0v.8H29.18a2,2,0,0,0-.34,0,2.05,2.05,0,0,0-1,.51V32.2H61.4ZM23,49.23V37h4.56a1.8,1.8,0,0,0-.33.65l-.25.7ZM26.2,35.4H24.13l.47-.47,1.6-1.6ZM59.8,29v1.6H26.67L24.6,32.67V29ZM20.6,25.59a.58.58,0,0,1,.59-.59h14.2l1.71,2.4H23v6.87l-1.6,1.6V53.54l-.8,2.18ZM57.3,60.66a.46.46,0,0,1-.44.34H21.05a.47.47,0,0,1-.46-.5l.8-2.21L28.73,38.2l0-.07a.45.45,0,0,1,.43-.34H65c.31,0,.38.44.4.66Zm0,0"/><text class="cls-4" transform="translate(26.17 58.41)">Portfolio</text></g></g></svg>