<?xml version="1.0" encoding="utf-8"?>
<!-- Generator: Adobe Illustrator 22.1.0, SVG Export Plug-In . SVG Version: 6.00 Build 0)  -->
<svg version="1.1" id="Layer_1" xmlns="http://www.w3.org/2000/svg" xmlns:xlink="http://www.w3.org/1999/xlink" x="0px" y="0px"
	 viewBox="0 0 84.7 84.7" style="enable-background:new 0 0 84.7 84.7;" xml:space="preserve">
<style type="text/css">
	.st0{fill:#FFFFFF;stroke:#AEA7A2;stroke-width:3;stroke-miterlimit:10;}
	.st1{fill:#ED6F27;}
</style>
<title>icon_All_Refrence</title>
<g id="Layer_2_1_">
	<g id="Layer_1-2">
		<circle class="st0" cx="42.3" cy="42.3" r="40.8"/>
		<path class="st1" d="M63.8,54.6h-7.1c-1.9,0-3.5,1.6-3.5,3.5s1.6,3.5,3.5,3.5h7.1c1.9,0,3.5-1.6,3.5-3.5S65.7,54.6,63.8,54.6
			L63.8,54.6"/>
		<path class="st1" d="M46,54.6h-7.2c-1.9,0-3.5,1.6-3.5,3.5s1.6,3.5,3.5,3.5H46c1.9,0,3.5-1.6,3.5-3.5S47.9,54.6,46,54.6"/>
		<path class="st1" d="M28.1,54.6h-7.1c-1.9,0-3.5,1.6-3.5,3.5s1.6,3.5,3.5,3.5h7.1c1.9,0,3.5-1.6,3.5-3.5S30,54.6,28.1,54.6"/>
		<path class="st1" d="M63.8,44.1h-7.1c-1.9,0-3.5,1.6-3.5,3.5s1.6,3.5,3.5,3.5h7.1c1.9,0,3.5-1.6,3.5-3.5S65.7,44.1,63.8,44.1
			L63.8,44.1"/>
		<path class="st1" d="M46,44.1h-7.2c-1.9,0-3.5,1.6-3.5,3.5s1.6,3.5,3.5,3.5H46c1.9,0,3.5-1.6,3.5-3.5S47.9,44.1,46,44.1"/>
		<path class="st1" d="M28.1,44.1h-7.1c-1.9,0-3.5,1.6-3.5,3.5s1.6,3.5,3.5,3.5h7.1c1.9,0,3.5-1.6,3.5-3.5S30,44.1,28.1,44.1"/>
		<path class="st1" d="M63.8,33.6h-7.1c-1.9,0-3.5,1.6-3.5,3.5s1.6,3.5,3.5,3.5h7.1c1.9,0,3.5-1.6,3.5-3.5S65.7,33.6,63.8,33.6
			L63.8,33.6"/>
		<path class="st1" d="M46,33.6h-7.2c-1.9,0-3.5,1.6-3.5,3.5s1.6,3.5,3.5,3.5H46c1.9,0,3.5-1.6,3.5-3.5S47.9,33.6,46,33.6"/>
		<path class="st1" d="M28.1,33.6h-7.1c-1.9,0-3.5,1.6-3.5,3.5s1.6,3.5,3.5,3.5h7.1c1.9,0,3.5-1.6,3.5-3.5S30,33.6,28.1,33.6"/>
		<path class="st1" d="M56.6,30.1h7.1c1.9,0,3.5-1.6,3.5-3.5s-1.6-3.5-3.5-3.5l0,0h-7.1c-1.9,0-3.5,1.6-3.5,3.5S54.7,30.1,56.6,30.1
			"/>
		<path class="st1" d="M46,23.1h-7.2c-1.9,0-3.5,1.6-3.5,3.5s1.6,3.5,3.5,3.5H46c1.9,0,3.5-1.6,3.5-3.5S47.9,23.1,46,23.1"/>
		<path class="st1" d="M28.1,23.1h-7.1c-1.9,0-3.5,1.6-3.5,3.5s1.6,3.5,3.5,3.5h7.1c1.9,0,3.5-1.6,3.5-3.5S30,23.1,28.1,23.1"/>
	</g>
</g>
</svg>
