<svg xmlns="http://www.w3.org/2000/svg" viewBox="0 0 80.03 80.03"><defs><style>.cls-1{fill:#ada7a3;}.cls-2{fill:#fff;}.cls-3{fill:none;stroke:#fff;stroke-linecap:round;stroke-width:3.44px;}</style></defs><title>Asset 5</title><g id="Layer_2" data-name="Layer 2"><g id="Layer_1-2" data-name="Layer 1"><g id="_Group_" data-name="&lt;Group&gt;"><path id="_Path_" data-name="&lt;Path&gt;" class="cls-1" d="M40,80A40,40,0,1,0,0,40,40,40,0,0,0,40,80"/><g id="_Group_2" data-name="&lt;Group&gt;"><path id="_Compound_Path_" data-name="&lt;Compound Path&gt;" class="cls-2" d="M55.21,61.19H24.83V17.79H40V33H55.21Zm4.34-32.55L44.36,13.45H24.83a4.34,4.34,0,0,0-4.34,4.34v43.4a4.34,4.34,0,0,0,4.34,4.34H55.21a4.34,4.34,0,0,0,4.34-4.34Z"/></g><line id="_Path_2" data-name="&lt;Path&gt;" class="cls-3" x1="29.84" y1="38.32" x2="50.2" y2="38.32"/><line id="_Path_3" data-name="&lt;Path&gt;" class="cls-3" x1="29.84" y1="46" x2="50.2" y2="46"/><line id="_Path_4" data-name="&lt;Path&gt;" class="cls-3" x1="29.84" y1="53.69" x2="50.2" y2="53.69"/></g></g></g></svg>