<?xml version="1.0" encoding="utf-8"?>
<!-- Generator: Adobe Illustrator 21.0.2, SVG Export Plug-In . SVG Version: 6.00 Build 0)  -->
<svg version="1.1" id="Layer_1" xmlns="http://www.w3.org/2000/svg" xmlns:xlink="http://www.w3.org/1999/xlink" x="0px" y="0px"
	 viewBox="0 0 88 88" style="enable-background:new 0 0 88 88;" xml:space="preserve">
<style type="text/css">
	.st0{clip-path:url(#SVGID_2_);fill:#ADA7A3;}
	.st1{clip-path:url(#SVGID_2_);fill:#CEC9C4;}
</style>
<g>
	<defs>
		<rect id="SVGID_1_" width="88" height="88"/>
	</defs>
	<clipPath id="SVGID_2_">
		<use xlink:href="#SVGID_1_"  style="overflow:visible;"/>
	</clipPath>
	<path class="st0" d="M44,88c24.3,0,44-19.7,44-44S68.3,0,44,0S0,19.7,0,44S19.7,88,44,88"/>
	<path class="st1" d="M47.8,50.3c0,1.2-0.5,2.2-1.3,2.9V61c0,1-1,1-1,1h-3c-1,0-1-1-1-1v-7.8c-0.8-0.7-1.3-1.7-1.3-2.9
		c0-2.1,1.7-3.8,3.8-3.8S47.8,48.2,47.8,50.3 M62.5,65.8V41.1c0,0,0-2.1-2.1-2.1h-33c0,0-2.1,0-2.1,2.1v24.7c0,0,0,2.1,2.1,2.1h33
		C60.5,67.8,62.5,67.8,62.5,65.8"/>
	<path class="st1" d="M30,39V26c0-2,2-11,15-11s14,12,14,12v6c0,0-1,2-3,2s-3-2-3-2v-6c0-2-2-6-8-6c-7,0-9,4-9,6v12H30z"/>
</g>
</svg>
