<?xml version="1.0" encoding="utf-8"?>
<!-- Generator: Adobe Illustrator 22.1.0, SVG Export Plug-In . SVG Version: 6.00 Build 0)  -->
<svg version="1.1" id="Layer_1" xmlns="http://www.w3.org/2000/svg" xmlns:xlink="http://www.w3.org/1999/xlink" x="0px" y="0px"
	 viewBox="0 0 84.7 84.7" style="enable-background:new 0 0 84.7 84.7;" xml:space="preserve">
<style type="text/css">
	.st0{fill:#FFFFFF;stroke:#ADA7A4;stroke-width:3;stroke-miterlimit:10;}
	.st1{fill:#ED6F27;}
</style>
<title>icon_close</title>
<g id="Layer_2_1_">
	<g id="Layer_1-2">
		<circle class="st0" cx="42.3" cy="42.3" r="40.8"/>
		<path class="st1" d="M62,55.4L48.9,42.3L62,29.3c1.9-1.7,2-4.6,0.3-6.5c-1.7-1.9-4.6-2-6.5-0.3c-0.1,0.1-0.2,0.2-0.3,0.3
			L42.3,35.8L29.3,22.7c-1.9-1.7-4.8-1.6-6.5,0.3c-1.6,1.8-1.6,4.5,0,6.2l13.1,13.1L22.7,55.4c-1.8,1.8-1.8,4.7,0,6.5
			c1.8,1.8,4.7,1.8,6.6,0l0,0l13.1-13.1L55.4,62c1.8,1.8,4.7,1.8,6.6,0S63.8,57.3,62,55.4z"/>
	</g>
</g>
</svg>
