<svg xmlns="http://www.w3.org/2000/svg" viewBox="0 0 80.03 80.03"><defs><style>.cls-1{fill:#ada7a3;}.cls-2{fill:#fff;}</style></defs><title>Asset 7</title><g id="Layer_2" data-name="Layer 2"><g id="Layer_1-2" data-name="Layer 1"><path id="_Path_" data-name="&lt;Path&gt;" class="cls-1" d="M40,80A40,40,0,1,0,0,40,40,40,0,0,0,40,80"/><path id="_Path_2" data-name="&lt;Path&gt;" class="cls-2" d="M65.72,42.8,47.88,57.07a3.59,3.59,0,0,1-2.23.78,3.52,3.52,0,0,1-1.55-.35,3.58,3.58,0,0,1-2-3.22v-9.7L26.47,57.07a3.57,3.57,0,0,1-2.23.78,3.53,3.53,0,0,1-1.55-.35,3.58,3.58,0,0,1-2-3.22V25.74A3.57,3.57,0,0,1,26.47,23L42.09,35.45V25.74A3.57,3.57,0,0,1,47.88,23L65.72,37.23a3.57,3.57,0,0,1,0,5.58"/></g></g></svg>