<svg xmlns="http://www.w3.org/2000/svg" viewBox="0 0 80.04 80.03"><defs><style>.cls-1{fill:#ada7a3;}.cls-2{fill:#fff;}</style></defs><title>Asset 6</title><g id="Layer_2" data-name="Layer 2"><g id="Layer_1-2" data-name="Layer 1"><path id="_Path_" data-name="&lt;Path&gt;" class="cls-1" d="M40,80A40,40,0,1,0,0,40,40,40,0,0,0,40,80"/><path id="_Compound_Path_" data-name="&lt;Compound Path&gt;" class="cls-2" d="M60.23,33.36V50.88a2.47,2.47,0,0,1-2.47,2.47H22.28a2.48,2.48,0,0,1-2.47-2.47V28.81l7.71,5.14L40,42.26l1.38-.92L44.7,39.1l11.69-7.8,3.85-2.56ZM32.93,26.68H55.35l-6.63,4.51-1.93,1.32L41.52,36.1a2.47,2.47,0,0,1-2.78,0l-5.19-3.53-2-1.37L24.9,26.68Zm29.14-4.3H18a2.47,2.47,0,0,0-2.47,2.47V55.18A2.47,2.47,0,0,0,18,57.65H62.06a2.47,2.47,0,0,0,2.47-2.47V24.85a2.47,2.47,0,0,0-2.47-2.47"/></g></g></svg>