<?xml version="1.0" encoding="utf-8"?>
<!-- Generator: Adobe Illustrator 22.1.0, SVG Export Plug-In . SVG Version: 6.00 Build 0)  -->
<svg version="1.1" id="Layer_1" xmlns="http://www.w3.org/2000/svg" xmlns:xlink="http://www.w3.org/1999/xlink" x="0px" y="0px"
	 viewBox="0 0 81 80" style="enable-background:new 0 0 81 80;" xml:space="preserve">
<style type="text/css">
	.st0{fill:#ADA7A3;}
	.st1{fill:#FFFFFF;}
</style>
<title>Asset 2</title>
<g id="Layer_2_1_">
	<g id="Layer_1-2">
		<g id="_Group_">
			<path id="_Path_" class="st0" d="M40.5,80C62.7,80.1,80.9,62.3,81,40c0,0,0,0,0,0C81,17.9,62.8,0,40.5,0S0,17.9,0,40
				S18.1,80,40.5,80"/>
			<path id="_Compound_Path_" class="st1" d="M20.5,44.4v17.5c0,2.4,2,4.4,4.4,4.4c0,0,0,0,0,0h8.8V48.8h13.3v17.5h8.8
				c2.4,0,4.4-1.9,4.4-4.4c0,0,0,0,0,0V44.4L40.4,24.7L20.5,44.4z M66.4,38.5L42,14.4c-0.9-0.9-2.3-0.9-3.1,0L14.6,38.5
				c-0.9,0.8-0.9,2.2,0,3.1c0,0,0,0,0,0c0.9,0.9,2.3,0.9,3.1,0L40.4,19l22.8,22.6c0.9,0.9,2.3,0.9,3.1,0
				C67.2,40.7,67.3,39.3,66.4,38.5C66.4,38.5,66.4,38.5,66.4,38.5"/>
		</g>
	</g>
</g>
</svg>
