<svg xmlns="http://www.w3.org/2000/svg" xmlns:xlink="http://www.w3.org/1999/xlink" viewBox="0 0 88.23 88.23"><defs><style>.cls-1{fill:none;}.cls-2{clip-path:url(#clip-path);}.cls-3{fill:#d13239;}</style><clipPath id="clip-path" transform="translate(0 0)"><rect class="cls-1" width="88.23" height="88.23"/></clipPath></defs><g id="Layer_2" data-name="Layer 2"><g id="Layer_1-2" data-name="Layer 1"><g class="cls-2"><path class="cls-3" d="M44.12,0A44.12,44.12,0,1,0,88.23,44.12,44.12,44.12,0,0,0,44.12,0m0,4.81A39.31,39.31,0,1,1,4.81,44.12,39.35,39.35,0,0,1,44.12,4.81" transform="translate(0 0)"/><path class="cls-3" d="M52.48,41c0,6-4.78,8.9-12,8.9H33v6.26H23.4V32.09H40.45c7.25,0,12,2.85,12,8.9m-9.69.27c0-1.85-1.35-2.57-3.13-2.57H33v5.15h6.64c1.78,0,3.13-.72,3.13-2.58m12.42-9.17h9.63V56.15H55.21Z" transform="translate(0 0)"/></g></g></g></svg>