<svg xmlns="http://www.w3.org/2000/svg" xmlns:xlink="http://www.w3.org/1999/xlink" viewBox="0 0 88 88"><defs><style>.cls-1{fill:none;}.cls-2{clip-path:url(#clip-path);}.cls-3{fill:#818181;}</style><clipPath id="clip-path" transform="translate(0)"><rect class="cls-1" width="88" height="88"/></clipPath></defs><g id="Layer_2" data-name="Layer 2"><g id="Layer_1-2" data-name="Layer 1"><g class="cls-2"><path class="cls-3" d="M44,4.8A39.2,39.2,0,1,1,4.8,44,39.25,39.25,0,0,1,44,4.8M44,0A44,44,0,1,0,88,44,44,44,0,0,0,44,0" transform="translate(0)"/><path class="cls-3" d="M55.07,32h9.6V56h-9.6Zm-12.4,9.15c0-1.85-1.34-2.57-3.12-2.57H32.94v5.15h6.61c1.78,0,3.12-.73,3.12-2.58m9.67-.27c0,6-4.77,8.88-12,8.88h-7.4V56H23.33V32h17c7.23,0,12,2.85,12,8.88" transform="translate(0)"/></g></g></g></svg>