<svg xmlns="http://www.w3.org/2000/svg" xmlns:xlink="http://www.w3.org/1999/xlink" viewBox="0 0 88 88"><defs><style>.cls-1{fill:none;}.cls-2{clip-path:url(#clip-path);}.cls-3{fill:#818181;}</style><clipPath id="clip-path" transform="translate(0 0)"><rect class="cls-1" width="88" height="88"/></clipPath></defs><g id="Layer_2" data-name="Layer 2"><g id="Layer_1-2" data-name="Layer 1"><g class="cls-2"><path class="cls-3" d="M44,4.8A39.2,39.2,0,1,1,4.8,44,39.25,39.25,0,0,1,44,4.8M44,0A44,44,0,1,0,88,44,44,44,0,0,0,44,0" transform="translate(0 0)"/><path class="cls-3" d="M44.53,18.06A16.13,16.13,0,1,1,28.4,34.19,16.13,16.13,0,0,1,44.53,18.06" transform="translate(0 0)"/><path class="cls-3" d="M70.7,72.91c0,10.28-11.76,11.46-26.27,11.46S18.16,83.19,18.16,72.91c0-2,6.07-18.62,26.27-18.62S70.7,71,70.7,72.91" transform="translate(0 0)"/></g></g></g></svg>