<svg xmlns="http://www.w3.org/2000/svg" xmlns:xlink="http://www.w3.org/1999/xlink" viewBox="0 0 88 88"><defs><style>.cls-1{fill:none;}.cls-2{clip-path:url(#clip-path);}.cls-3{fill:#818181;}</style><clipPath id="clip-path"><rect class="cls-1" width="88" height="88"/></clipPath></defs><g id="Layer_2" data-name="Layer 2"><g id="Layer_1-2" data-name="Layer 1"><g class="cls-2"><path class="cls-3" d="M44,4.8A39.2,39.2,0,1,1,4.8,44,39.25,39.25,0,0,1,44,4.8M44,0A44,44,0,1,0,88,44,44,44,0,0,0,44,0"/><path class="cls-3" d="M54.22,52.67h-17v3.59h17ZM36.57,55.15H54.91m2.17,4.6V39.48H45.67V28.25H34.26v31.5Zm4.26-24.87V64H30V24H50.18v0h.39L61.33,34.77v.11Z"/></g></g></g></svg>