<svg xmlns="http://www.w3.org/2000/svg" xmlns:xlink="http://www.w3.org/1999/xlink" viewBox="0 0 88 88"><defs><style>.cls-1{fill:none;}.cls-2{clip-path:url(#clip-path);}.cls-3{fill:#d13239;}</style><clipPath id="clip-path" transform="translate(0 0)"><rect class="cls-1" width="88" height="88"/></clipPath></defs><g id="Layer_2" data-name="Layer 2"><g id="Layer_1-2" data-name="Layer 1"><g class="cls-2"><path class="cls-3" d="M44,0A44,44,0,1,0,88,44,44,44,0,0,0,44,0m0,4.8A39.2,39.2,0,1,1,4.8,44,39.25,39.25,0,0,1,44,4.8" transform="translate(0 0)"/></g><path class="cls-3" d="M61.34,34.88V64H30V24H50.18v0h.39L61.33,34.77v.11ZM57.08,59.75V39.48H45.67V28.25H34.26v31.5Zm-20.51-4.6H54.92m-.7-2.48h-17v3.58h17Z" transform="translate(0 0)"/></g></g></svg>