<svg xmlns="http://www.w3.org/2000/svg" xmlns:xlink="http://www.w3.org/1999/xlink" viewBox="0 0 88.4 88"><defs><style>.cls-1{fill:none;}.cls-2{clip-path:url(#clip-path);}.cls-3{fill:#818181;}.cls-4{clip-path:url(#clip-path-2);}</style><clipPath id="clip-path" transform="translate(0)"><rect class="cls-1" width="88" height="88"/></clipPath><clipPath id="clip-path-2" transform="translate(0)"><rect class="cls-1" x="0.4" width="88" height="88"/></clipPath></defs><g id="Layer_2" data-name="Layer 2"><g id="Layer_1-2" data-name="Layer 1"><g class="cls-2"><path class="cls-3" d="M44,4.8A39.2,39.2,0,1,1,4.8,44,39.25,39.25,0,0,1,44,4.8M44,0A44,44,0,1,0,88,44,44,44,0,0,0,44,0" transform="translate(0)"/><rect class="cls-3" x="60.29" y="24.03" width="3.81" height="39.52"/><path class="cls-3" d="M48.54,24.13v7.24L35.75,25.85l-14,32.48L34.82,64,48.54,32.15v31.5h3.82V24.13ZM44.87,38,34,33.31l.8-1.85,10.84,4.67Z" transform="translate(0)"/><rect class="cls-3" x="53.19" y="25.76" width="1.57" height="36.34"/><rect class="cls-3" x="55.54" y="25.76" width="1.57" height="36.34"/><rect class="cls-3" x="57.89" y="25.76" width="1.57" height="36.34"/></g><g class="cls-4"><path class="cls-3" d="M44.4,4.8A39.2,39.2,0,1,1,5.2,44,39.25,39.25,0,0,1,44.4,4.8m0-4.8a44,44,0,1,0,44,44,44,44,0,0,0-44-44" transform="translate(0)"/><rect class="cls-3" x="60.69" y="24.03" width="3.81" height="39.52"/><path class="cls-3" d="M48.94,24.13v7.24L36.15,25.85l-14,32.48L35.22,64,48.94,32.15v31.5h3.82V24.13ZM45.27,38,34.43,33.31l.8-1.85,10.84,4.67Z" transform="translate(0)"/><rect class="cls-3" x="53.59" y="25.76" width="1.57" height="36.34"/><rect class="cls-3" x="55.94" y="25.76" width="1.57" height="36.34"/><rect class="cls-3" x="58.29" y="25.76" width="1.57" height="36.34"/></g></g></g></svg>